# xmcd
#
# Track frame offsets:
#	150
#	39074
#	58044
#	82556
#	132430
#	154455
#	181042
#	215559
#	270026
#	287701
#
# Disc length: 4081 seconds
#
# Revision: 0
# Processed by: cddbd v1.4PL0 Copyright (c) Steve Scherf et al.
# Submitted via: dBpowerAMP V4.0
#
DISCID=7b0fef0a
DTITLE=Stevie Ray Vaughan - The Forgotten Show
DYEAR=1988
DGENRE=Blues
TTITLE0=medley: Scuttle Buttin'/Say What
TTITLE1=Lookin'out the window
TTITLE2=Look at little sister
TTITLE3=Ain't gonna give up my love
TTITLE4=Superstition
TTITLE5=Cold shot
TTITLE6=Couldn't stand the weather
TTITLE7=Life without you
TTITLE8=Love struck Baby
TTITLE9=Rude Mood
EXTD=
EXTT0=
EXTT1=
EXTT2=
EXTT3=
EXTT4=
EXTT5=
EXTT6=
EXTT7=
EXTT8=
EXTT9=
PLAYORDER=
